<?xml version="1.0" encoding="utf-8"?>
<!-- Generator: Adobe Illustrator 22.1.0, SVG Export Plug-In . SVG Version: 6.00 Build 0)  -->
<svg version="1.1" id="Layer_1" xmlns="http://www.w3.org/2000/svg" xmlns:xlink="http://www.w3.org/1999/xlink" x="0px" y="0px"
	 viewBox="0 0 91.1 20" style="enable-background:new 0 0 91.1 20;" xml:space="preserve">
<style type="text/css">
	.st0{fill:#FFFFFF;}
	.st1{font-family:'ArialMT';}
	.st2{font-size:14.3908px;}
	.st3{fill:#FFFFFF;stroke:#FFFFFF;stroke-miterlimit:10;}
</style>
<path class="st0" d="M11.3,5.7c0,0,1.3-2.3,3.3-2.3c0,0,2.6-0.1,2.8-0.6c0,0,0.7-0.5,0.8-0.9c0,0,0,1.4-2.6,1.7c0,0-1.8,0.1-3,1.1
	S11.2,5.8,11.3,5.7z"/>
<path class="st0" d="M11.5,6.7c0,0,1.1-2.4,4.2-2.5c0,0,1.8,0,2.2-0.3c0,0-0.6,0.4-1.6,0.5c0,0-1.5,0.2-2,0.5
	c-0.5,0.3-1.7,0.9-2.2,1.9c0,0,2.3,1.5,4.5-0.9l1.3-1.8c0,0-1.2,2.3-1.9,2.8c0,0-1.5,1.2-3,0.6L11.5,7V6.7z"/>
<path class="st0" d="M9.7,5.7c0,0-1.3-2.3-3.3-2.3c0,0-2.6-0.1-2.8-0.6c0,0-0.7-0.5-0.8-0.9c0,0,0,1.4,2.6,1.7c0,0,1.8,0.1,3,1.1
	S9.8,5.8,9.7,5.7z"/>
<path class="st0" d="M9.5,6.7c0,0-1.1-2.4-4.2-2.5c0,0-1.8,0-2.2-0.3c0,0,0.6,0.4,1.6,0.5c0,0,1.5,0.2,2,0.5s1.7,0.9,2.2,1.9
	c0,0-2.3,1.5-4.5-0.9L3.1,4.1c0,0,1.2,2.3,1.9,2.8c0,0,1.5,1.2,3,0.6L9.5,7V6.7z"/>
<ellipse class="st0" cx="10.5" cy="4.6" rx="0.2" ry="0.2"/>
<path class="st0" d="M14,5.2c-0.5,0-1,0.5-1,1c0,0.6,0.4,1,1,1c0.5,0,1-0.5,1-1C15,5.7,14.6,5.2,14,5.2z M14.2,6.1
	c-0.1,0-0.1-0.1-0.1-0.1c0-0.1,0.1-0.1,0.1-0.1s0.1,0.1,0.1,0.1C14.4,6,14.3,6.1,14.2,6.1z"/>
<path class="st0" d="M7,5.2c-0.5,0-1,0.5-1,1c0,0.6,0.4,1,1,1c0.5,0,1-0.5,1-1C8,5.6,7.6,5.2,7,5.2z M6.8,6C6.7,6,6.7,6,6.7,5.9
	c0-0.1,0.1-0.1,0.1-0.1C6.9,5.7,7,5.8,7,5.9C7,6,6.9,6,6.8,6z"/>
<path class="st0" d="M8,11.7c0,0,0.2,0,0.3,0.1c0.1,0.2,0.1,0.2,0.1,0.2s0.5,0.1,0.8,0s0.8-0.1,1.3,0.4c0,0,0.5-0.4,0.9-0.4
	c0,0,0.2,0,0.5,0.1c0,0,0.6,0,0.7,0c0,0,0-0.2,0.2-0.3c0,0,0.2-0.1,0.3,0c0,0,0.1,0.2-0.1,0.3c0,0-0.2,0.2-0.2,0.2
	c0,0.1,0-0.1,0-0.1S12.3,13,12,13.3c0,0-1.4,1.4-3.1-0.2c0,0-0.5-0.6-0.7-0.9c0,0,0-0.2-0.2-0.2C8,12,7.9,11.8,8,11.7z"/>
<g>
	<path class="st0" d="M8.9,9.6c0,0-0.3,0.5,0,0.9c0,0,0.3,0.4,0.7,0c0,0,0.8,1.4,1.6,0.1l0.1-0.1c0,0,0.4,0.4,0.7,0
		c0,0,0.4-0.3,0-0.9"/>
	<path class="st0" d="M8.9,9.6c-0.1,0.3-0.2,0.6,0,0.8l0,0c0.1,0.1,0.2,0.2,0.3,0.2c0.1,0,0.2-0.1,0.3-0.2l0.1-0.1l0.1,0.1
		c0.2,0.3,0.5,0.6,0.8,0.6c0.3,0,0.6-0.4,0.8-0.7l0.1-0.1l0.1,0.1c0.2,0.2,0.4,0.2,0.6,0.1l0,0l0,0c0.2-0.2,0.2-0.5,0.1-0.8
		c0.2,0.2,0.3,0.6,0,0.9l0,0c-0.1,0.1-0.3,0.2-0.4,0.2c-0.2,0-0.3-0.1-0.4-0.2l0.1,0c-0.2,0.3-0.4,0.7-0.9,0.7
		c-0.2,0-0.4-0.1-0.6-0.2c-0.2-0.1-0.3-0.3-0.4-0.5l0.1,0c-0.1,0.1-0.3,0.2-0.4,0.2c-0.2,0-0.3-0.1-0.4-0.2l0,0
		C8.7,10.2,8.8,9.8,8.9,9.6z"/>
</g>
<path class="st0" d="M8.4,1c0,0,0.1,2.1,2.1,2.3c0,0,1.8,0,2.1-2.3c0,0,0.2,1.1-0.8,2c0,0-1.3,1.1-2.6-0.1C9.1,3,8.4,2.3,8.4,1z"/>
<path class="st0" d="M10.5,0.1c-0.7,0-1.3,0.6-1.3,1.4s0.6,1.4,1.3,1.4s1.3-0.6,1.3-1.4S11.2,0.1,10.5,0.1z M10.1,1.3
	C10,1.3,10,1.3,10,1.1C10,1,10,0.9,10.1,0.9c0.1,0,0.2,0.1,0.2,0.2C10.3,1.3,10.2,1.3,10.1,1.3z"/>
<path class="st0" d="M21.1,11.8c-0.8-0.8-2.1-1.4-3.6-1.4c-0.7,0-1.2,0-1.7,0c-0.1,0-0.3,0-0.5,0h-1.2h-0.2l-3.4,7.8h-0.1l-3.4-7.8
	H6.8H5.6h0v6.8c0,0.6,0,1.1-0.3,1.4C5,18.8,4.5,18.8,4,18.8c-0.5,0-3.3,0-3.3,0v1.1c0,0,2.5,0,3.4,0c0.9,0,1.7,0,2.2-0.5
	c0.5-0.5,0.6-1.4,0.6-2.3v-4.6h0l3.1,7.1h1l3.1-7.1h0v7.2h0.1c0.2,0,0.4,0,0.6,0c0.2,0,0.3,0,0.6,0h2.2c1.5,0,2.6-0.4,3.4-1.2
	c0.8-0.8,1.2-2,1.2-3.5C22.2,13.6,21.9,12.6,21.1,11.8z M20,17.8c-0.6,0.6-1.5,1-2.6,1h-2.1c0-0.7,0-1.3,0-1.9s0-1.1,0-1.8
	c0-0.6,0-1.2,0-1.8c0-0.6,0-1.2,0-1.9h2.1c1.1,0,1.9,0.3,2.6,1c0.6,0.6,0.9,1.5,0.9,2.7C20.9,16.2,20.6,17.1,20,17.8z"/>
<text transform="matrix(1 0 0 1 23.3995 19.4606)" class="st0 st1 st2">FINANCE</text>
<line class="st3" x1="24.2" y1="6.3" x2="85.8" y2="6.3"/>
<line class="st3" x1="24.2" y1="3.2" x2="75.6" y2="3.2"/>
</svg>
