<?xml version="1.0" encoding="utf-8"?>
<!-- Generator: Adobe Illustrator 22.1.0, SVG Export Plug-In . SVG Version: 6.00 Build 0)  -->
<svg version="1.1" id="Layer_1" xmlns="http://www.w3.org/2000/svg" xmlns:xlink="http://www.w3.org/1999/xlink" x="0px" y="0px"
	 viewBox="0 0 91.1 20" style="enable-background:new 0 0 91.1 20;" xml:space="preserve">
<style type="text/css">
	.st0{fill:#231F20;}
	.st1{fill:#DF1A23;}
	.st2{fill:#DE2126;}
	.st3{fill:#E92700;}
	.st4{fill:url(#SVGID_1_);}
	.st5{font-family:'ArialMT';}
	.st6{font-size:14.3908px;}
	.st7{fill:none;stroke:#E92700;stroke-miterlimit:10;}
</style>
<path class="st0" d="M11.1,5.6c0,0,1.3-2.3,3.3-2.3c0,0,2.6-0.1,2.8-0.6c0,0,0.7-0.5,0.8-0.9c0,0,0,1.4-2.6,1.7c0,0-1.8,0.1-3,1.1
	S11,5.7,11.1,5.6z"/>
<path class="st0" d="M11.3,6.6c0,0,1.1-2.4,4.2-2.5c0,0,1.8,0,2.2-0.3c0,0-0.6,0.4-1.6,0.5c0,0-1.5,0.2-2,0.5
	c-0.5,0.3-1.7,0.9-2.2,1.9c0,0,2.3,1.5,4.5-0.9L17.7,4c0,0-1.2,2.3-1.9,2.8c0,0-1.5,1.2-3,0.6l-1.4-0.5V6.6z"/>
<path class="st0" d="M9.5,5.6c0,0-1.3-2.3-3.3-2.3c0,0-2.6-0.1-2.8-0.6c0,0-0.7-0.5-0.8-0.9c0,0,0,1.4,2.6,1.7c0,0,1.8,0.1,3,1.1
	S9.6,5.7,9.5,5.6z"/>
<path class="st0" d="M9.3,6.6c0,0-1.1-2.4-4.2-2.5c0,0-1.8,0-2.2-0.3c0,0,0.6,0.4,1.6,0.5c0,0,1.5,0.2,2,0.5s1.7,0.9,2.2,1.9
	c0,0-2.3,1.5-4.5-0.9L2.9,4c0,0,1.2,2.3,1.9,2.8c0,0,1.5,1.2,3,0.6l1.4-0.5V6.6z"/>
<ellipse class="st1" cx="10.3" cy="4.5" rx="0.2" ry="0.2"/>
<path class="st0" d="M13.8,5.1c-0.5,0-1,0.5-1,1c0,0.6,0.4,1,1,1c0.5,0,1-0.5,1-1C14.8,5.5,14.4,5.1,13.8,5.1z M14,5.9
	c-0.1,0-0.1-0.1-0.1-0.1c0-0.1,0.1-0.1,0.1-0.1s0.1,0.1,0.1,0.1C14.2,5.9,14.1,5.9,14,5.9z"/>
<path class="st0" d="M6.8,5.1c-0.5,0-1,0.5-1,1c0,0.6,0.4,1,1,1c0.5,0,1-0.5,1-1C7.8,5.5,7.4,5.1,6.8,5.1z M6.6,5.9
	c-0.1,0-0.1-0.1-0.1-0.1c0-0.1,0.1-0.1,0.1-0.1c0.1,0,0.1,0.1,0.1,0.1C6.8,5.9,6.7,5.9,6.6,5.9z"/>
<path class="st1" d="M7.8,11.6c0,0,0.2,0,0.3,0.1C8.3,11.9,8.3,12,8.3,12s0.5,0.1,0.8,0s0.8-0.1,1.3,0.4c0,0,0.5-0.4,0.9-0.4
	c0,0,0.2,0,0.5,0.1c0,0,0.6,0,0.7,0c0,0,0-0.2,0.2-0.3c0,0,0.2-0.1,0.3,0c0,0,0.1,0.2-0.1,0.3c0,0-0.2,0.2-0.2,0.2
	c0,0.1,0-0.1,0-0.1s-0.5,0.8-0.9,1.1c0,0-1.4,1.4-3.1-0.2c0,0-0.5-0.6-0.7-0.9c0,0,0-0.2-0.2-0.2C7.8,11.9,7.7,11.7,7.8,11.6z"/>
<g>
	<path d="M8.7,9.5c-0.1,0.3-0.2,0.6,0,0.8l0,0c0.1,0.1,0.2,0.2,0.3,0.2c0.1,0,0.2-0.1,0.3-0.2l0.1-0.1l0.1,0.1
		c0.2,0.3,0.5,0.6,0.8,0.6c0.3,0,0.6-0.4,0.8-0.7l0.1-0.1l0.1,0.1c0.2,0.2,0.4,0.2,0.6,0.1l0,0l0,0c0.2-0.2,0.2-0.5,0.1-0.8
		c0.2,0.2,0.3,0.6,0,0.9l0,0c-0.1,0.1-0.3,0.2-0.4,0.2c-0.2,0-0.3-0.1-0.4-0.2l0.1,0c-0.2,0.3-0.4,0.7-0.9,0.7
		c-0.2,0-0.4-0.1-0.6-0.2c-0.2-0.1-0.3-0.3-0.4-0.5l0.1,0c-0.1,0.1-0.3,0.2-0.4,0.2c-0.2,0-0.3-0.1-0.4-0.2l0,0
		C8.5,10.1,8.6,9.7,8.7,9.5z"/>
</g>
<path class="st2" d="M8.2,0.9c0,0,0.1,2.1,2.1,2.3c0,0,1.8,0,2.1-2.3c0,0,0.2,1.1-0.8,2c0,0-1.3,1.1-2.6-0.1
	C8.9,2.8,8.2,2.2,8.2,0.9z"/>
<path class="st3" d="M10.3,0C9.6,0,9,0.6,9,1.4s0.6,1.4,1.3,1.4s1.3-0.6,1.3-1.4S11,0,10.3,0z M9.9,1.2C9.8,1.2,9.8,1.1,9.8,1
	s0.1-0.2,0.2-0.2s0.2,0.1,0.2,0.2S10.1,1.2,9.9,1.2z"/>
<linearGradient id="SVGID_1_" gradientUnits="userSpaceOnUse" x1="11.25" y1="19.7755" x2="11.25" y2="10.2669">
	<stop  offset="0" style="stop-color:#D40000"/>
	<stop  offset="5.299802e-02" style="stop-color:#DD2F09"/>
	<stop  offset="0.113" style="stop-color:#E65C12"/>
	<stop  offset="0.1754" style="stop-color:#EE8419"/>
	<stop  offset="0.2393" style="stop-color:#F4A41F"/>
	<stop  offset="0.3052" style="stop-color:#F9BD24"/>
	<stop  offset="0.3741" style="stop-color:#FCCE27"/>
	<stop  offset="0.4475" style="stop-color:#FED929"/>
	<stop  offset="0.5338" style="stop-color:#FFDC2A"/>
	<stop  offset="0.582" style="stop-color:#FED629"/>
	<stop  offset="0.6457" style="stop-color:#FDC526"/>
	<stop  offset="0.7183" style="stop-color:#FAAA20"/>
	<stop  offset="0.7973" style="stop-color:#F68319"/>
	<stop  offset="0.8815" style="stop-color:#F15210"/>
	<stop  offset="0.9689" style="stop-color:#EB1704"/>
	<stop  offset="1" style="stop-color:#E90000"/>
</linearGradient>
<path class="st4" d="M20.9,11.6c-0.8-0.8-2.1-1.4-3.6-1.4c-0.7,0-1.2,0-1.7,0c-0.1,0-0.3,0-0.5,0H14h-0.2L10.4,18h-0.1l-3.4-7.8H6.7
	H5.5h0V17c0,0.6,0,1.1-0.3,1.4c-0.3,0.3-0.8,0.3-1.3,0.3c-0.5,0-3.3,0-3.3,0v1.1c0,0,2.5,0,3.4,0c0.9,0,1.7,0,2.2-0.5
	c0.5-0.5,0.6-1.4,0.6-2.3v-4.6h0l3.1,7.1h1l3.1-7.1h0v7.2H14c0.2,0,0.4,0,0.6,0c0.2,0,0.3,0,0.6,0h2.2c1.5,0,2.6-0.4,3.4-1.2
	c0.8-0.8,1.2-2,1.2-3.5C22,13.5,21.7,12.5,20.9,11.6z M19.8,17.7c-0.6,0.6-1.5,1-2.6,1h-2.1c0-0.7,0-1.3,0-1.9c0-0.6,0-1.1,0-1.8
	c0-0.6,0-1.2,0-1.8c0-0.6,0-1.2,0-1.9h2.1c1.1,0,1.9,0.3,2.6,1c0.6,0.6,0.9,1.5,0.9,2.7C20.7,16.1,20.4,17,19.8,17.7z"/>
<text transform="matrix(1 0 0 1 23.2065 19.6611)" class="st3 st5 st6">FINANCE</text>
<line class="st7" x1="24" y1="6.1" x2="85.6" y2="6.2"/>
<line class="st7" x1="24" y1="3" x2="75.4" y2="3.1"/>
</svg>
