<?xml version="1.0" encoding="utf-8"?>
<!-- Generator: Adobe Illustrator 22.1.0, SVG Export Plug-In . SVG Version: 6.00 Build 0)  -->
<svg version="1.1" id="Layer_1" xmlns="http://www.w3.org/2000/svg" xmlns:xlink="http://www.w3.org/1999/xlink" x="0px" y="0px"
	 viewBox="0 0 700 700" style="enable-background:new 0 0 700 700;" xml:space="preserve">
<style type="text/css">
	.st0{fill:#231F20;}
	.st1{fill:#E92700;}
	.st2{fill:#DF1A23;}
	.st3{fill:#DE2126;}
	.st4{fill:url(#SVGID_1_);}
</style>
<path class="st0" d="M345.6,263.5c0,0,42.1-71.8,107.2-71.8c0,0,83.2-3.6,92.6-17.6c0,0,23.4-15.5,25-28.9c0,0,0.7,43.2-85.3,53.2
	c0,0-59.3,2.1-96.2,34.1S340.4,266.1,345.6,263.5z"/>
<path class="st0" d="M351.9,295c0,0,37.5-72.8,135.2-78c0,0,57.7,1,71.8-8.8c0,0-20.3,13.4-51,14.5c0,0-48.9,6.2-66.1,13.9
	c-17.2,7.7-56.2,27.9-72.8,58.4c0,0,74.9,47,146.2-26.9l43.7-54.2c0,0-40.6,71.8-63.5,84.7c0,0-47.3,37.7-97.8,19.1l-45.8-14.5V295z
	"/>
<path class="st0" d="M291.8,263.5c0,0-42.1-71.8-107.2-71.8c0,0-83.2-3.6-92.6-17.6c0,0-23.4-15.5-25-28.9c0,0-0.7,43.2,85.3,53.2
	c0,0,59.3,2.1,96.2,34.1S297,266.1,291.8,263.5z"/>
<path class="st0" d="M285.5,295c0,0-37.5-72.8-135.2-78c0,0-57.7,1-71.8-8.8c0,0,20.3,13.4,51,14.5c0,0,48.9,6.2,66.1,13.9
	c17.2,7.7,56.2,27.9,72.8,58.4c0,0-74.9,47-146.2-26.9l-43.7-54.2c0,0,40.6,71.8,63.5,84.7c0,0,47.3,37.7,97.8,19.1l45.8-14.5V295z"
	/>
<path class="st1" d="M317.9,0c-131.5,131.2,0,186,0,186C455.2,120.4,317.9,0,317.9,0z M319.4,174.1c-118.6-57.9,0-160.7,0-160.7
	C431.2,130.2,319.4,174.1,319.4,174.1z"/>
<ellipse class="st2" cx="319.6" cy="229.9" rx="7.3" ry="7.2"/>
<path class="st0" d="M433.7,247.8c-17.9,0-32.4,14.4-32.4,32.2c0,17.8,14.5,32.2,32.4,32.2c17.9,0,32.4-14.4,32.4-32.2
	C466.1,262.2,451.6,247.8,433.7,247.8z M440.2,274.3c-2.4,0-4.4-2-4.4-4.4c0-2.4,2-4.4,4.4-4.4c2.4,0,4.4,2,4.4,4.4
	C444.6,272.4,442.6,274.3,440.2,274.3z"/>
<path class="st0" d="M205.8,247.7c-17.7,0-32,14.2-32,31.8c0,17.5,14.3,31.8,32,31.8c17.7,0,32-14.2,32-31.8
	C237.8,261.9,223.4,247.7,205.8,247.7z M199.3,273.8c-2.5,0-4.5-2-4.5-4.5c0-2.5,2-4.5,4.5-4.5c2.5,0,4.5,2,4.5,4.5
	C203.8,271.8,201.8,273.8,199.3,273.8z"/>
<path class="st2" d="M237.9,448.7c0,0,6.2-1,10.9,4.1c4.7,5.2,3.4,7.2,3.4,7.2s16.1,2.8,25.2,0c9.1-2.8,24.4-3.1,41.1,11.4
	c0,0,15.9-12.7,29.1-12.9c0,0,5.7,0,15.3,2.6c0,0,19.8,0.4,22.9-1.1c0,0,0-6.2,5.2-9c0,0,7.8-4.4,10.1-1.3c0,0,2.1,5.9-1.8,8
	c0,0-5.2,5.4-6,7s0.8-1.5,0.8-1.5s-15.3,25.6-27.8,32.5c0,0-44.5,42.1-101.4-5.2c0,0-17.4-18.6-21.3-26.3c0,0-1.3-4.9-5.7-5.9
	C237.9,458.3,234.3,450.8,237.9,448.7z"/>
<g>
	<path d="M268.1,382.1c-1.2,2-2.1,4.2-2.8,6.5c-0.7,2.2-1.2,4.6-1.4,6.9c-0.1,2.3,0.1,4.7,0.8,6.9c0.7,2.2,2,4.2,3.6,5.9l0,0l0,0
		c1.5,1.7,3.3,3.2,5.3,4.2c2,1,4.3,1.6,6.5,1.5l0.4,0l0.4-0.1l0.8-0.1l0.8-0.1l0.8-0.3c0.5-0.2,1.1-0.3,1.6-0.5l1.5-0.7
		c0.5-0.2,1-0.6,1.4-0.9l1.4-1c0.9-0.7,1.7-1.5,2.6-2.2l0.4-0.3l0.3,0.4c3.2,5,7.2,9.6,12,13.2c2.4,1.8,5,3.3,7.8,4.3
		c2.8,1,5.8,1.4,8.7,1.2c2.9-0.2,5.8-1.1,8.4-2.4c2.6-1.4,5-3.1,7.3-5.1c0.6-0.5,1.1-1,1.6-1.6c0.5-0.5,1.1-1,1.6-1.6
		c1-1.1,2-2.2,2.9-3.4l5.5-7.2l0.3-0.3l0.3,0.3c1.6,1.3,3.5,2.4,5.4,3.3c1.9,0.9,4,1.5,6.1,1.8c2.1,0.3,4.3,0.1,6.3-0.6
		c0.5-0.2,1-0.4,1.5-0.6l1.4-0.8c0.5-0.2,0.9-0.6,1.3-0.9l1.3-1l0,0c1.8-1.4,3.3-3.5,4.2-5.6c1-2.2,1.4-4.6,1.4-7l-0.1-1.8l-0.3-1.8
		l-0.1-0.9l-0.2-0.9l-0.5-1.7c-0.4-1.1-0.9-2.3-1.3-3.4l-1.6-3.3l1.7,3.2c0.5,1.1,0.9,2.2,1.4,3.4l0.5,1.7l0.3,0.9l0.2,0.9l0.3,1.8
		l0.1,1.8c0.1,2.4-0.3,4.9-1.2,7.2c-0.9,2.3-2.4,4.3-4.3,5.9l0,0l-1.3,1c-0.4,0.4-0.9,0.7-1.4,0.9l-1.4,0.8c-0.5,0.2-1,0.4-1.5,0.6
		c-2.1,0.7-4.4,1-6.6,0.7c-2.2-0.3-4.3-0.9-6.3-1.8c-2-0.9-3.9-2-5.6-3.4l0.6-0.1l-5.5,7.2c-0.9,1.2-2,2.3-2.9,3.5
		c-0.5,0.6-1.1,1.1-1.6,1.6c-0.5,0.5-1.1,1.1-1.6,1.6c-2.3,2-4.7,3.9-7.4,5.3c-2.7,1.4-5.7,2.3-8.8,2.6c-3.1,0.2-6.2-0.2-9.1-1.3
		c-2.9-1-5.6-2.6-8-4.4c-4.9-3.7-8.9-8.3-12.1-13.5l0.7,0.1c-0.9,0.8-1.8,1.5-2.7,2.3l-1.5,1c-0.5,0.3-1,0.7-1.5,0.9l-1.6,0.8
		c-0.5,0.2-1.1,0.4-1.7,0.5l-0.9,0.3l-0.9,0.1l-0.9,0.1l-0.4,0.1l-0.4,0c-2.4,0.1-4.7-0.6-6.8-1.7c-2.1-1.1-3.9-2.6-5.4-4.4l0,0
		c-1.6-1.8-2.9-3.8-3.6-6.1c-0.7-2.3-0.9-4.7-0.7-7.1c0.2-2.4,0.8-4.7,1.5-6.9C265.9,386.2,266.9,384.1,268.1,382.1z"/>
</g>
<path class="st3" d="M252,119.9c0,0,4,64.6,67.2,69.2c0,0,58.7,0.3,67.3-69.2c0,0,6,34.9-26.5,62.5c0,0-40.8,33.6-85.3-3.1
	C274.6,179.3,250.4,160.7,252,119.9z"/>
<path class="st1" d="M318.4,59.7c-23.6,0-42.8,18.6-42.8,41.6s19.2,41.6,42.8,41.6c23.6,0,42.8-18.6,42.8-41.6
	S342.1,59.7,318.4,59.7z M307.4,97.6c-3.4,0-6.2-2.8-6.2-6.2c0-3.4,2.8-6.2,6.2-6.2s6.2,2.8,6.2,6.2
	C313.6,94.8,310.8,97.6,307.4,97.6z"/>
<linearGradient id="SVGID_1_" gradientUnits="userSpaceOnUse" x1="349.7816" y1="698.9717" x2="349.7816" y2="407.1218">
	<stop  offset="0" style="stop-color:#D40000"/>
	<stop  offset="5.299802e-02" style="stop-color:#DD2F09"/>
	<stop  offset="0.113" style="stop-color:#E65C12"/>
	<stop  offset="0.1754" style="stop-color:#EE8419"/>
	<stop  offset="0.2393" style="stop-color:#F4A41F"/>
	<stop  offset="0.3052" style="stop-color:#F9BD24"/>
	<stop  offset="0.3741" style="stop-color:#FCCE27"/>
	<stop  offset="0.4475" style="stop-color:#FED929"/>
	<stop  offset="0.5338" style="stop-color:#FFDC2A"/>
	<stop  offset="0.582" style="stop-color:#FED629"/>
	<stop  offset="0.6457" style="stop-color:#FDC526"/>
	<stop  offset="0.7183" style="stop-color:#FAAA20"/>
	<stop  offset="0.7973" style="stop-color:#F68319"/>
	<stop  offset="0.8815" style="stop-color:#F15210"/>
	<stop  offset="0.9689" style="stop-color:#EB1704"/>
	<stop  offset="1" style="stop-color:#E90000"/>
</linearGradient>
<path class="st4" d="M664.6,449.3c-26.7-25.3-68.6-42.2-116.2-42.2c-22.3,0-40.6,0-55.1,0c-4.8,0-10.1,0-15.8,0h-39.3h-7.3
	L321,645.8h-3.6l-110-238.6h-7.3h-39.3h-0.8V615c0,17.7-1.2,33.6-10.5,42.8c-9.3,9.2-25.7,8.9-42.9,8.9c-15.1,0-107.1,0-107.1,0V699
	c0,0,83,0,109.9,0c29.1,0,55.2,1.4,71.9-13.9c16.6-15.3,18.9-42.4,18.9-69.8V475.3h0.8l101.3,218.3h33.8l101.3-218.3h0.8v220.3h1.9
	c7.6,0,13.8,0,18.7,0c4.9,0,11.1,0,18.7,0h70.9c47.8,0,85-12.7,111.6-38.1c26.6-25.4,40-60.8,40-106.2
	C700,505.8,691.3,474.6,664.6,449.3z M629.3,633.8c-19.8,19.6-47.7,29.4-83.6,29.4h-67.5c0-21.6,0-40.9,0-57.9s0-35,0-54
	c0-19,0-37,0-54c0-17,0-36.3,0-57.9h67.5c35.6,0,63.4,9.9,83.4,29.6c20,19.7,29.9,47.2,29.9,82.5C659,586.8,649.1,614.2,629.3,633.8
	z"/>
</svg>
